<svg width="281" height="111" viewBox="0 0 281 111" fill="none" xmlns="http://www.w3.org/2000/svg">
<path d="M36.0739 91.3586L23.6451 78.9298C14.854 70.1386 0 76.3531 0 88.7819V105H72.1478V55.2847L36.0739 91.3586Z" fill="white"/>
<path d="M36.0739 36.6414L48.5027 49.0702C57.2939 57.8613 72.1478 51.6469 72.1478 39.2181V23H0V72.7153L36.0739 36.6414Z" fill="white"/>
<path d="M93.7134 80V73.14H110.933C111.773 73.14 112.497 72.9533 113.103 72.58C113.757 72.2067 114.247 71.7167 114.573 71.11C114.947 70.5033 115.133 69.8733 115.133 69.22C115.133 68.4733 114.97 67.82 114.643 67.26C114.317 66.7 113.85 66.2567 113.243 65.93C112.637 65.5567 111.937 65.37 111.143 65.37H104.143C101.857 65.37 99.8268 64.9967 98.0534 64.25C96.2801 63.5033 94.8801 62.36 93.8534 60.82C92.8268 59.2333 92.3134 57.25 92.3134 54.87C92.3134 52.9567 92.7801 51.2067 93.7134 49.62C94.6934 48.0333 96.0001 46.75 97.6334 45.77C99.2668 44.79 101.11 44.3 103.163 44.3H119.753V51.16H103.933C102.86 51.16 101.973 51.51 101.273 52.21C100.573 52.8633 100.223 53.68 100.223 54.66C100.223 55.5933 100.573 56.41 101.273 57.11C101.973 57.81 102.907 58.16 104.073 58.16H110.863C113.43 58.16 115.623 58.5567 117.443 59.35C119.263 60.1433 120.64 61.3333 121.573 62.92C122.553 64.5067 123.043 66.5133 123.043 68.94C123.043 70.9 122.553 72.7433 121.573 74.47C120.593 76.15 119.24 77.5033 117.513 78.53C115.833 79.51 113.92 80 111.773 80H93.7134ZM131.041 80V44.3H139.091V80H131.041ZM135.031 39.33C133.631 39.33 132.418 38.8167 131.391 37.79C130.364 36.7633 129.851 35.55 129.851 34.15C129.851 32.75 130.364 31.5367 131.391 30.51C132.418 29.4833 133.631 28.97 135.031 28.97C136.478 28.97 137.691 29.4833 138.671 30.51C139.698 31.5367 140.211 32.75 140.211 34.15C140.211 35.55 139.698 36.7633 138.671 37.79C137.691 38.8167 136.478 39.33 135.031 39.33ZM161.066 80C157.893 80 155.396 79.09 153.576 77.27C151.803 75.45 150.916 72.9767 150.916 69.85V35.34H158.896V69.5C158.896 70.5733 159.223 71.46 159.876 72.16C160.529 72.8133 161.393 73.14 162.466 73.14H169.956V80H161.066ZM144.756 51.16V44.3H170.026V51.16H144.756ZM177.314 80V54.45C177.314 51.2767 178.2 48.8033 179.974 47.03C181.794 45.21 184.29 44.3 187.464 44.3H196.074V51.16H188.934C187.814 51.16 186.927 51.4867 186.274 52.14C185.667 52.7933 185.364 53.68 185.364 54.8V80H177.314ZM219.716 80C215.703 80 212.18 79.2533 209.146 77.76C206.16 76.22 203.826 74.12 202.146 71.46C200.466 68.7533 199.626 65.65 199.626 62.15C199.626 58.4633 200.373 55.22 201.866 52.42C203.36 49.62 205.413 47.4267 208.026 45.84C210.64 44.2533 213.65 43.46 217.056 43.46C220.883 43.46 224.033 44.2767 226.506 45.91C228.98 47.5433 230.8 49.7367 231.966 52.49C233.18 55.2433 233.786 58.3233 233.786 61.73C233.786 62.1967 233.763 62.7333 233.716 63.34C233.67 63.9467 233.6 64.4133 233.506 64.74H208.166C208.446 66.6067 209.123 68.17 210.196 69.43C211.27 70.6433 212.623 71.5767 214.256 72.23C215.89 72.8367 217.71 73.14 219.716 73.14H229.306V80H219.716ZM208.096 59.28H225.736C225.69 58.3933 225.55 57.5067 225.316 56.62C225.13 55.7333 224.803 54.8933 224.336 54.1C223.916 53.3067 223.356 52.63 222.656 52.07C222.003 51.4633 221.21 50.9967 220.276 50.67C219.343 50.2967 218.27 50.11 217.056 50.11C215.656 50.11 214.42 50.39 213.346 50.95C212.273 51.4633 211.363 52.1633 210.616 53.05C209.87 53.89 209.286 54.87 208.866 55.99C208.493 57.0633 208.236 58.16 208.096 59.28ZM259.575 43.46C262.468 43.46 265.058 43.9267 267.345 44.86C269.631 45.7467 271.568 47.0533 273.155 48.78C274.788 50.5067 276.025 52.56 276.865 54.94C277.751 57.2733 278.195 59.8633 278.195 62.71C278.195 66.3033 277.448 69.4767 275.955 72.23C274.508 74.9367 272.478 77.06 269.865 78.6C267.298 80.0933 264.311 80.84 260.905 80.84C259.225 80.84 257.638 80.5833 256.145 80.07C254.651 79.5567 253.298 78.8333 252.085 77.9C250.871 76.9667 249.891 75.87 249.145 74.61H249.075V95.4H241.025V62.57C241.025 58.6033 241.795 55.1967 243.335 52.35C244.921 49.5033 247.115 47.31 249.915 45.77C252.715 44.23 255.935 43.46 259.575 43.46ZM259.575 50.32C257.568 50.32 255.771 50.8333 254.185 51.86C252.598 52.84 251.361 54.2167 250.475 55.99C249.588 57.7633 249.145 59.8167 249.145 62.15C249.145 64.4367 249.588 66.49 250.475 68.31C251.361 70.0833 252.598 71.4833 254.185 72.51C255.771 73.49 257.591 73.98 259.645 73.98C261.698 73.98 263.495 73.4667 265.035 72.44C266.621 71.4133 267.858 70.0133 268.745 68.24C269.631 66.4667 270.075 64.4367 270.075 62.15C270.075 59.8167 269.631 57.7633 268.745 55.99C267.858 54.2167 266.621 52.84 265.035 51.86C263.448 50.8333 261.628 50.32 259.575 50.32Z" fill="white"/>
</svg>
